<svg width="936" height="725" viewBox="0 0 936 725" fill="none" xmlns="http://www.w3.org/2000/svg">
<path d="M38.5904 498.029C-44.4961 377.248 16.0416 210.582 157.274 171.281C188.674 162.543 217.658 146.733 242.003 125.063L276.01 94.7934C396.526 -12.479 572.313 -30.2055 711.82 50.8459L737.122 65.5461C753.608 75.1245 771.476 82.0983 790.092 86.2206C945.064 120.537 987.802 321.203 860.263 415.69L627 588.5L533.699 661.234C398.538 766.6 202.549 736.37 105.419 595.175L38.5904 498.029Z" fill="#6366F1"/>
<path d="M408.037 430.02C442.892 430.02 471.147 423.774 471.147 416.07C471.147 408.366 442.892 402.12 408.037 402.12C373.183 402.12 344.927 408.366 344.927 416.07C344.927 423.774 373.183 430.02 408.037 430.02Z" fill="#1D2023"/>
<path d="M685.367 281.11H691.367C691.998 281.107 692.602 280.856 693.047 280.41C693.493 279.964 693.745 279.36 693.747 278.73V241.85C693.748 241.537 693.687 241.228 693.567 240.939C693.446 240.651 693.27 240.389 693.047 240.17L685.467 232.59C685.247 232.368 684.986 232.192 684.697 232.072C684.409 231.952 684.1 231.89 683.787 231.89H661.397C660.767 231.893 660.163 232.144 659.717 232.59C659.272 233.036 659.02 233.64 659.017 234.27V237.83" fill="#FBDC8E"/>
<path d="M164.057 369.11C183.057 372.71 179.667 486.11 143.197 479.25C108.757 472.71 140.877 364.7 164.057 369.11Z" fill="black"/>
<path d="M80.6374 383.11C95.7574 374.55 159.047 454.19 130.097 470.57C102.747 486.11 62.2274 393.55 80.6374 383.11Z" fill="#FBDC8E"/>
<path d="M157.687 534.03H119.507C117.97 534.03 116.486 533.462 115.34 532.436C114.195 531.411 113.467 529.998 113.297 528.47L108.477 485.19C108.373 484.312 108.456 483.422 108.72 482.579C108.984 481.735 109.424 480.957 110.011 480.296C110.597 479.634 111.317 479.105 112.124 478.742C112.93 478.379 113.803 478.191 114.687 478.19H162.307C163.184 478.191 164.051 478.376 164.852 478.733C165.653 479.091 166.369 479.613 166.955 480.266C167.541 480.918 167.983 481.687 168.252 482.522C168.521 483.356 168.611 484.238 168.517 485.11L163.907 528.39C163.754 529.934 163.032 531.365 161.883 532.407C160.734 533.45 159.239 534.028 157.687 534.03Z" fill="#969696"/>
<path d="M174.787 324.95C189.257 329.15 178.167 416.68 150.457 408.62C124.297 401.02 157.177 319.83 174.787 324.95Z" fill="#AB8DE5"/>
<path d="M198.647 394.59C208.647 403.21 167.967 469.15 148.747 452.59C130.597 437.02 186.437 384.11 198.647 394.59Z" fill="#FBDC8E"/>
<path d="M138.697 334.05C160.357 334.05 180.187 472.35 138.697 472.35C99.5174 472.35 112.327 334.05 138.697 334.05Z" fill="#78E5E1"/>
<path d="M176.707 468.83H100.507C98.2707 468.83 96.4574 470.643 96.4574 472.88V480.26C96.4574 482.497 98.2707 484.31 100.507 484.31H176.707C178.944 484.31 180.757 482.497 180.757 480.26V472.88C180.757 470.643 178.944 468.83 176.707 468.83Z" fill="#D8D8D8"/>
<path d="M675.287 237.83H653.287C652.935 237.83 652.585 237.9 652.26 238.035C651.934 238.17 651.638 238.369 651.389 238.618C651.14 238.868 650.943 239.165 650.809 239.491C650.675 239.818 650.606 240.167 650.607 240.52V284.32C650.607 285.032 650.89 285.714 651.392 286.219C651.894 286.723 652.576 287.007 653.287 287.01H682.677C683.389 287.007 684.071 286.723 684.573 286.219C685.075 285.714 685.357 285.032 685.357 284.32V247.92C685.359 247.568 685.291 247.218 685.157 246.892C685.023 246.566 684.826 246.27 684.578 246.02L677.177 238.62C676.677 238.117 675.997 237.833 675.287 237.83Z" fill="#D8D8D8"/>
<path d="M685.367 246.87H677.897C677.5 246.87 677.118 246.712 676.837 246.431C676.555 246.149 676.397 245.768 676.397 245.37V237.83" fill="#969696"/>
<path d="M693.777 240.94H686.307C685.908 240.937 685.525 240.777 685.243 240.495C684.96 240.212 684.8 239.83 684.797 239.43V231.89" fill="#64CCC4"/>
<path d="M650.637 187.76H599.077C597.404 187.76 596.047 189.117 596.047 190.79V207.63C596.047 209.303 597.404 210.66 599.077 210.66H650.637C652.311 210.66 653.667 209.303 653.667 207.63V190.79C653.667 189.117 652.311 187.76 650.637 187.76Z" fill="#78E5E1"/>
<path d="M624.847 226.36L631.787 205.34H617.907L624.847 226.36Z" fill="#78E5E1"/>
<path d="M611.097 193.86L605.277 203.93H616.907L611.097 193.86Z" fill="white"/>
<path d="M638.607 203.93L644.427 193.86H632.787L638.607 203.93Z" fill="white"/>
<path d="M624.847 203.27C627.261 203.27 629.217 201.313 629.217 198.9C629.217 196.487 627.261 194.53 624.847 194.53C622.434 194.53 620.477 196.487 620.477 198.9C620.477 201.313 622.434 203.27 624.847 203.27Z" fill="white"/>
<path d="M620.357 139.23H586.517C585.054 139.23 583.867 140.416 583.867 141.88V162.34C583.867 163.804 585.054 164.99 586.517 164.99H620.357C621.821 164.99 623.007 163.804 623.007 162.34V141.88C623.007 140.416 621.821 139.23 620.357 139.23Z" fill="#D8D8D8"/>
<path d="M623.007 144.83C626.1 144.83 628.607 142.323 628.607 139.23C628.607 136.137 626.1 133.63 623.007 133.63C619.915 133.63 617.407 136.137 617.407 139.23C617.407 142.323 619.915 144.83 623.007 144.83Z" fill="#FBDC8E"/>
<path d="M623.804 135.781V141.09H623.161V136.455H623.13L621.833 137.316V136.662L623.161 135.781H623.804Z" fill="white"/>
<path d="M819.427 154.94H673.427C672.748 154.94 672.197 155.491 672.197 156.17V156.93C672.197 157.609 672.748 158.16 673.427 158.16H819.427C820.107 158.16 820.657 157.609 820.657 156.93V156.17C820.657 155.491 820.107 154.94 819.427 154.94Z" fill="#D8D8D8"/>
<path d="M735.097 91H726.227C724.814 91 723.667 92.1461 723.667 93.56V152.38C723.667 153.794 724.814 154.94 726.227 154.94H735.097C736.511 154.94 737.657 153.794 737.657 152.38V93.56C737.657 92.1461 736.511 91 735.097 91Z" fill="#969696"/>
<path d="M742.527 105.99H739.787C738.611 105.99 737.657 106.944 737.657 108.12V152.81C737.657 153.986 738.611 154.94 739.787 154.94H742.527C743.704 154.94 744.657 153.986 744.657 152.81V108.12C744.657 106.944 743.704 105.99 742.527 105.99Z" fill="#D8D8D8"/>
<path d="M749.597 105.99H746.717C745.58 105.99 744.657 106.912 744.657 108.05V152.88C744.657 154.018 745.58 154.94 746.717 154.94H749.597C750.735 154.94 751.657 154.018 751.657 152.88V108.05C751.657 106.912 750.735 105.99 749.597 105.99Z" fill="#969696"/>
<path d="M754.673 109.493L752.31 110.578C751.206 111.085 750.722 112.391 751.229 113.495L769.817 153.982C770.324 155.087 771.63 155.571 772.734 155.064L775.097 153.979C776.201 153.472 776.685 152.166 776.178 151.062L757.591 110.575C757.084 109.471 755.778 108.986 754.673 109.493Z" fill="#D8D8D8"/>
<path d="M730.657 138.76C732.817 138.76 734.567 137.009 734.567 134.85C734.567 132.691 732.817 130.94 730.657 130.94C728.498 130.94 726.747 132.691 726.747 134.85C726.747 137.009 728.498 138.76 730.657 138.76Z" fill="#D8D8D8"/>
<path d="M734.197 141.1H727.117C726.598 141.1 726.177 141.521 726.177 142.04C726.177 142.559 726.598 142.98 727.117 142.98H734.197C734.717 142.98 735.137 142.559 735.137 142.04C735.137 141.521 734.717 141.1 734.197 141.1Z" fill="#D8D8D8"/>
<path d="M734.197 145.91H727.117C726.598 145.91 726.177 146.331 726.177 146.85C726.177 147.369 726.598 147.79 727.117 147.79H734.197C734.717 147.79 735.137 147.369 735.137 146.85C735.137 146.331 734.717 145.91 734.197 145.91Z" fill="#D8D8D8"/>
<path d="M662.557 242.35H655.477C654.958 242.35 654.537 242.771 654.537 243.29C654.537 243.809 654.958 244.23 655.477 244.23H662.557C663.077 244.23 663.497 243.809 663.497 243.29C663.497 242.771 663.077 242.35 662.557 242.35Z" fill="#969696"/>
<path d="M662.557 246.87H655.477C654.958 246.87 654.537 247.291 654.537 247.81C654.537 248.329 654.958 248.75 655.477 248.75H662.557C663.077 248.75 663.497 248.329 663.497 247.81C663.497 247.291 663.077 246.87 662.557 246.87Z" fill="#969696"/>
<path d="M680.917 254.6H655.067C654.548 254.6 654.127 255.021 654.127 255.54C654.127 256.059 654.548 256.48 655.067 256.48H680.917C681.437 256.48 681.857 256.059 681.857 255.54C681.857 255.021 681.437 254.6 680.917 254.6Z" fill="#969696"/>
<path d="M680.917 259.04H655.067C654.548 259.04 654.127 259.461 654.127 259.98C654.127 260.499 654.548 260.92 655.067 260.92H680.917C681.437 260.92 681.857 260.499 681.857 259.98C681.857 259.461 681.437 259.04 680.917 259.04Z" fill="#969696"/>
<path d="M680.917 263.48H655.067C654.548 263.48 654.127 263.901 654.127 264.42C654.127 264.939 654.548 265.36 655.067 265.36H680.917C681.437 265.36 681.857 264.939 681.857 264.42C681.857 263.901 681.437 263.48 680.917 263.48Z" fill="#969696"/>
<path d="M741.887 113.38C741.887 112.977 741.561 112.65 741.157 112.65C740.754 112.65 740.427 112.977 740.427 113.38V147.54C740.427 147.943 740.754 148.27 741.157 148.27C741.561 148.27 741.887 147.943 741.887 147.54V113.38Z" fill="#969696"/>
<path d="M711.177 156.55H704.917C703.542 156.55 702.427 157.665 702.427 159.04C702.427 160.415 703.542 161.53 704.917 161.53H711.177C712.553 161.53 713.667 160.415 713.667 159.04C713.667 157.665 712.553 156.55 711.177 156.55Z" fill="#D8D8D8"/>
<path d="M787.937 156.55H781.677C780.302 156.55 779.187 157.665 779.187 159.04C779.187 160.415 780.302 161.53 781.677 161.53H787.937C789.313 161.53 790.427 160.415 790.427 159.04C790.427 157.665 789.313 156.55 787.937 156.55Z" fill="#D8D8D8"/>
<path d="M551.647 161.42H515.137C508.51 161.42 503.137 166.793 503.137 173.42V191.23C503.137 197.857 508.51 203.23 515.137 203.23H551.647C558.275 203.23 563.647 197.857 563.647 191.23V173.42C563.647 166.793 558.275 161.42 551.647 161.42Z" fill="#D8D8D8"/>
<path d="M524.757 168.15H515.657V196.5H524.757V168.15Z" fill="#AB8DE5"/>
<path d="M537.947 187.01H528.847V196.51H537.947V187.01Z" fill="#AB8DE5"/>
<path d="M551.127 179.01H542.027V196.5H551.127V179.01Z" fill="#AB8DE5"/>
<path d="M561.187 513.79C561.187 516.16 559.797 531.11 562.567 532.49C565.337 533.87 595.787 534.71 597.167 533.32C598.547 531.93 599.377 529.03 598.167 528.2C596.957 527.37 585.167 525.02 583.567 523.91C581.967 522.8 579.757 516.91 580.567 513.79" fill="#1F161E"/>
<path d="M470.147 318.36L487.287 312.21C486.547 280.94 479.237 211.07 468.857 200.68C466.417 198.25 418.157 194.01 409.547 194.01C358.167 194.01 342.927 199.87 339.057 203.75C327.057 215.75 323.317 271.35 323.317 290.82C323.317 310.29 378.317 320.39 378.317 320.39L442.787 324.82C442.787 324.82 456.927 326.28 469.157 327C469.427 323.25 470.147 318.36 470.147 318.36Z" fill="#ED1AFF"/>
<path d="M521.217 336.49C525.907 335.1 572.547 327.49 582.707 337.49C592.867 347.49 624.847 490.86 624.847 494.16H599.097L564.337 419.35" fill="#1F161E"/>
<path d="M351.407 323.74C350.237 329.59 343.207 335.87 343.207 367.74C343.207 411.81 379.307 412.74 392.267 412.74C432.647 412.74 497.977 400.74 502.387 398.54C505.317 403.44 559.247 513.54 559.497 516H584.327C584.327 516 568.937 351.28 541.167 332.6C532.147 326.6 372.117 320.18 351.407 323.74Z" fill="#7E0E88"/>
<path d="M496.807 291.52C490.287 291.52 484.907 293.07 470.147 295.97L469.377 324.21C483.377 318.57 486.627 310.73 490.687 310.73C500.827 310.73 506.127 315.96 512.117 315.96C516.297 315.96 523.817 312.68 523.817 308.22C523.817 298.88 504.887 291.52 496.807 291.52Z" fill="#F8CDBA"/>
<path d="M600.557 492.18C600.557 494.56 599.167 509.5 601.937 510.89C604.707 512.28 635.157 513.1 636.537 511.72C637.917 510.34 638.747 507.43 637.537 506.6C636.327 505.77 624.537 503.41 622.937 502.3C621.337 501.19 619.127 495.3 619.937 492.18" fill="#1F161E"/>
<path d="M418.637 200.66C418.637 204.43 396.747 204.54 396.747 200.66V170H418.637V200.66Z" fill="#F8CDBA"/>
<path d="M411.507 180.11C409.507 180.11 396.747 185.75 396.747 188.9V172.26C399.927 172.26 411.507 180.11 411.507 180.11Z" fill="#1F161E"/>
<path d="M415.737 181.41C430.373 181.41 442.237 169.546 442.237 154.91C442.237 140.274 430.373 128.41 415.737 128.41C401.102 128.41 389.237 140.274 389.237 154.91C389.237 169.546 401.102 181.41 415.737 181.41Z" fill="#F8CDBA"/>
<path d="M443.087 134.11C439.807 139.32 432.947 141.71 425.517 141.71C419.187 141.71 409.967 139.87 403.407 143.61C399.857 145.61 395.787 150.16 394.967 159.27C394.967 160.83 393.197 166.88 393.197 168.83C393.197 170.16 391.697 171.03 389.197 171.03C387.907 171.03 385.357 168.94 385.357 165.75C385.357 162.06 386.827 160.75 386.827 157.62C386.827 154.49 382.997 151.48 382.997 142.78C382.997 130.25 390.997 122.53 396.657 122.53C401.817 122.53 403.437 123.73 404.087 124.24C404.087 112.85 419.087 107.65 425.037 107.65C431.837 107.65 435.037 110.44 435.037 113.99C435.037 119.65 432.337 124.46 430.967 125.54C434.068 122.75 438.096 121.214 442.267 121.23C450.057 121.23 452.677 126.35 452.677 129.85C452.677 137.46 443.547 144.51 440.147 144.51C439.292 142.7 438.289 140.964 437.147 139.32" fill="#1F161E"/>
<path d="M395.787 164.06C398.908 164.06 401.437 161.53 401.437 158.41C401.437 155.29 398.908 152.76 395.787 152.76C392.667 152.76 390.137 155.29 390.137 158.41C390.137 161.53 392.667 164.06 395.787 164.06Z" fill="#F8CDBA"/>
<path d="M442.497 159.77C444.916 159.77 446.877 158.749 446.877 157.49C446.877 156.231 444.916 155.21 442.497 155.21C440.078 155.21 438.117 156.231 438.117 157.49C438.117 158.749 440.078 159.77 442.497 159.77Z" fill="#FA9E9F"/>
<path d="M414.947 159.77C417.366 159.77 419.327 158.749 419.327 157.49C419.327 156.231 417.366 155.21 414.947 155.21C412.528 155.21 410.567 156.231 410.567 157.49C410.567 158.749 412.528 159.77 414.947 159.77Z" fill="#FA9E9F"/>
<path d="M323.317 287.52C323.317 333.61 323.747 346.98 342.247 346.98C384.887 346.98 449.347 311.98 460.837 311.98C470.987 311.98 476.287 317.22 482.277 317.22C486.447 317.22 493.967 313.93 493.967 309.48C493.967 300.13 475.037 292.77 466.967 292.77C448.797 292.77 376.287 310.29 374.517 310.29C372.747 310.29 369.767 309.52 369.767 306.54C369.767 301.13 373.307 288.63 373.767 287.54L323.317 287.52Z" fill="#F8CDBA"/>
<path d="M745.456 527.857C746.175 530.591 748.974 532.225 751.709 531.507C754.444 530.788 756.078 527.988 755.359 525.253L704.16 330.511C703.441 327.776 700.642 326.142 697.907 326.861C695.172 327.58 693.538 330.38 694.257 333.114L745.456 527.857Z" fill="#A1C8DA"/>
<path d="M693.748 333.123C694.467 330.388 692.833 327.588 690.098 326.869C687.364 326.15 684.564 327.784 683.845 330.519L632.646 525.261C631.927 527.996 633.561 530.796 636.296 531.515C639.031 532.234 641.831 530.6 642.55 527.865L693.748 333.123Z" fill="#A1C8DA"/>
<path d="M623.1 333.121C623.819 330.387 622.185 327.587 619.45 326.868C616.715 326.149 613.915 327.783 613.196 330.518L561.998 525.26C561.279 527.995 562.913 530.795 565.648 531.514C568.382 532.233 571.182 530.599 571.901 527.864L623.1 333.121Z" fill="white"/>
<path d="M673.917 524.262C674.624 527.005 677.42 528.656 680.163 527.949C682.906 527.242 684.557 524.445 683.85 521.702L633.51 326.383C632.803 323.64 630.006 321.99 627.263 322.697C624.52 323.404 622.87 326.2 623.577 328.943L673.917 524.262Z" fill="white"/>
<path d="M334.679 333.127C335.398 330.392 333.764 327.592 331.029 326.873C328.294 326.154 325.494 327.788 324.775 330.523L273.577 525.265C272.858 528 274.492 530.8 277.227 531.519C279.961 532.238 282.761 530.604 283.48 527.869L334.679 333.127Z" fill="#A1C8DA"/>
<path d="M385.516 527.869C386.235 530.604 389.035 532.238 391.77 531.519C394.505 530.8 396.139 528 395.42 525.266L344.221 330.523C343.502 327.789 340.702 326.154 337.968 326.873C335.233 327.592 333.599 330.392 334.318 333.127L385.516 527.869Z" fill="#A1C8DA"/>
<path d="M725.267 317.25H230.097C227.596 317.25 225.567 319.278 225.567 321.78V327.87C225.567 330.372 227.596 332.4 230.097 332.4H725.267C727.769 332.4 729.797 330.372 729.797 327.87V321.78C729.797 319.278 727.769 317.25 725.267 317.25Z" fill="white"/>
<path d="M261.504 333.13C262.223 330.395 260.589 327.595 257.854 326.876C255.119 326.157 252.319 327.791 251.6 330.526L200.402 525.268C199.683 528.003 201.317 530.803 204.052 531.522C206.786 532.241 209.586 530.607 210.305 527.872L261.504 333.13Z" fill="white"/>
<path d="M312.341 527.87C313.06 530.604 315.86 532.238 318.595 531.52C321.329 530.801 322.963 528.001 322.244 525.266L271.046 330.524C270.327 327.789 267.527 326.155 264.792 326.874C262.057 327.593 260.423 330.393 261.142 333.127L312.341 527.87Z" fill="white"/>
<path d="M596.277 317.25H503.767L520.527 259.61C520.946 258.219 521.803 257.001 522.971 256.138C524.139 255.275 525.555 254.812 527.007 254.82H605.507C606.539 254.803 607.559 255.028 608.488 255.476C609.417 255.923 610.229 256.582 610.858 257.399C611.488 258.216 611.917 259.168 612.114 260.181C612.31 261.193 612.266 262.237 611.987 263.23L596.277 317.25Z" fill="#1D2023"/>
<path d="M561.377 291.69C564.503 291.69 567.037 289.156 567.037 286.03C567.037 282.904 564.503 280.37 561.377 280.37C558.252 280.37 555.717 282.904 555.717 286.03C555.717 289.156 558.252 291.69 561.377 291.69Z" fill="white"/>
<path d="M514.757 313.2H449.847V317.25H514.757V313.2Z" fill="#1D2023"/>
</svg>
